<?xml version="1.0" encoding="utf-8"?>
<!-- Generator: Adobe Illustrator 23.0.0, SVG Export Plug-In . SVG Version: 6.00 Build 0)  -->
<svg version="1.1" xmlns="http://www.w3.org/2000/svg" xmlns:xlink="http://www.w3.org/1999/xlink" x="0px" y="0px" width="32px"
	 height="32px" viewBox="0 0 32 32" enable-background="new 0 0 32 32" xml:space="preserve">
<g id="labels">
	<g>
	</g>
</g>
<g id="icons">
	<g>
		<path fill="#BEE758" d="M20.614,14.734c0,1.231,0,2.267,0,3.498c2.308,0,9.232-1.154,9.232-6.924c-0.83,0-1.227,0-2.309,0
			C27.538,13.616,21.804,14.734,20.614,14.734z"/>
		<path fill="#FFE28A" d="M29.846,10.154C29.846,9.517,29.329,9,28.692,9s-1.154,0.517-1.154,1.154
			c-0.637,0-1.154,0.517-1.154,1.154c0,0.478,0.29,0.888,0.704,1.063c-0.134,0.155-0.284,0.306-0.465,0.446
			c1.672,1.52,1.167,1.087,2.161,1.931c0.466-0.647,0.8-1.414,0.957-2.307c0.036,0.003,0.067,0.021,0.104,0.021
			c0.637,0,1.154-0.517,1.154-1.154S30.483,10.154,29.846,10.154z"/>
		<path fill="#B38658" d="M28.692,12.173c-0.478,0-0.865-0.387-0.865-0.865s0.387-0.865,0.865-0.865
			c0.478,0,0.865,0.387,0.865,0.865S29.17,12.173,28.692,12.173z"/>
		<path fill="#CBEB6B" d="M4.462,11.308c-1.082,0-1.479,0-2.309,0c0,5.77,6.925,6.924,9.232,6.924c0-1.231,0-2.267,0-3.498
			C10.196,14.734,4.462,13.616,4.462,11.308z"/>
		<path fill="#FFEAA7" d="M4.911,12.371c0.414-0.175,0.704-0.585,0.704-1.063c0-0.637-0.517-1.154-1.154-1.154
			C4.462,9.517,3.945,9,3.308,9s-1.154,0.517-1.154,1.154C1.517,10.154,1,10.671,1,11.308s0.517,1.154,1.154,1.154
			c0.037,0,0.068-0.018,0.104-0.021c0.158,0.893,0.491,1.66,0.957,2.307c0.994-0.844,0.489-0.411,2.161-1.931
			C5.195,12.677,5.045,12.526,4.911,12.371z"/>
		<circle fill="#B38658" cx="3.308" cy="11.308" r="0.865"/>
		<g>
			<path fill="#B1E346" d="M24.072,19.5c1.143,0,5.714,1.143,5.714,3.428c0,0.956-0.622,1.789-1.273,2.462
				c-0.502,0.518-0.427,1.357,0.174,1.757l2.243,1.495l-4.571,2.286l-1.904-3.047c-0.214-0.214-0.224-0.558-0.023-0.784l1.257-1.228
				c0.306-0.299,0.187-0.816-0.219-0.951l-2.54-0.847L24.072,19.5z"/>
			<circle fill="#FFD96C" cx="26.357" cy="30.928" r="1.072"/>
			<circle fill="#FFD96C" cx="28.785" cy="29.857" r="1.072"/>
			<circle fill="#FFD96C" cx="30.928" cy="28.785" r="1.072"/>
		</g>
		<g>
			<path fill="#BEE758" d="M7.928,19.5c-1.143,0-5.714,1.143-5.714,3.428c0,0.956,0.622,1.789,1.273,2.462
				c0.502,0.518,0.427,1.357-0.174,1.757l-2.243,1.495l4.571,2.286l1.904-3.047c0.214-0.214,0.224-0.558,0.023-0.784l-1.257-1.228
				c-0.306-0.299-0.187-0.816,0.219-0.951l2.54-0.847L7.928,19.5z"/>
			<circle fill="#FFE28A" cx="5.643" cy="30.928" r="1.072"/>
			<circle fill="#FFE28A" cx="3.215" cy="29.857" r="1.072"/>
			<circle fill="#FFE28A" cx="1.072" cy="28.785" r="1.072"/>
		</g>
		<path fill="#65A9DC" d="M16.031,4.688c-0.003,0-0.007,0-0.011,0c-0.276-0.006-0.495-0.235-0.489-0.511
			C15.575,2.124,15.621,0,17.792,0c1.312,0,1.728,0.737,1.845,1.054c0.203,0.546,0.054,1.178-0.363,1.537
			c-0.382,0.33-0.901,0.365-1.39,0.097c-0.242-0.133-0.33-0.438-0.196-0.68c0.133-0.242,0.437-0.329,0.68-0.196
			c0.169,0.093,0.231,0.04,0.254,0.021c0.087-0.075,0.142-0.261,0.078-0.431C18.604,1.146,18.273,1,17.792,1
			c-0.923,0-1.201,0.42-1.26,3.198C16.525,4.471,16.303,4.688,16.031,4.688z"/>
		<path fill="#BEE758" d="M22.909,16.726c-0.921-1.346-1.337-3.755-1.364-5.567c0.388-0.733,0.611-1.551,0.611-2.418
			c0-3.09-2.755-5.595-6.154-5.595v11.189V30c4.613-0.001,8.357-3.964,8.357-8.577C24.358,19.68,23.823,18.063,22.909,16.726z"/>
		<path fill="#CBEB6B" d="M16.001,3.146c-3.399,0-6.154,2.505-6.154,5.595c0,0.865,0.222,1.682,0.608,2.413
			c-0.027,1.813-0.443,4.225-1.365,5.573c-0.914,1.337-1.449,2.954-1.449,4.697c0,4.613,3.744,8.576,8.357,8.577V14.335l-0.002,0
			c0.002,0,0.003,0,0.005,0V3.146z"/>
		<path fill="none" d="M16.859,21.985c-0.814,0-0.246-0.976-0.857-0.994v3.935c4.391-0.015,4.053-6.805,0-6.82v1.309
			C18.001,19.429,18.302,21.985,16.859,21.985z"/>
		<path fill="none" d="M15.988,20.989c-2.558,0-2.433,3.939,0,3.939c0.005,0,0.008-0.001,0.013-0.001v-3.935
			C15.996,20.992,15.994,20.989,15.988,20.989z"/>
		<g>
			<path fill="#FFEAA7" d="M15.988,17.636c-8.13,0-8.891,12.411,0,12.364v-0.19c-7.368,0-6.701-10.486,0-10.486
				c0.005,0,0.009,0.001,0.013,0.001v-1.688C15.997,17.637,15.993,17.636,15.988,17.636z"/>
			<path fill="#FFE28A" d="M16.859,23.204c1.443,0,1.143-2.557-0.857-2.569v1.576C16.613,22.227,16.044,23.204,16.859,23.204z"/>
			<path fill="#FFEAA7" d="M15.988,26.147c-2.433,0-2.558-3.939,0-3.939c0.006,0,0.008,0.003,0.013,0.003v-1.576
				c-0.005,0-0.008-0.002-0.013-0.002c-4.88,0-4.897,7.381,0,7.381c0.005,0,0.008-0.001,0.013-0.001v-1.867
				C15.997,26.145,15.993,26.147,15.988,26.147z"/>
			<path fill="#FFE28A" d="M16.002,17.637v1.688c4.053,0.015,4.391,6.805,0,6.82v1.867C23.566,27.999,22.651,17.652,16.002,17.637z"
				/>
		</g>
		<ellipse fill="#FFFFFF" cx="11.867" cy="6.31" rx="1.818" ry="1.958"/>
		<path fill="#373F3F" d="M13.125,6.412c0,0.749-0.564,1.356-1.259,1.356s-1.259-0.607-1.259-1.356s0.564-1.356,1.259-1.356
			S13.125,5.663,13.125,6.412z"/>
		<circle fill="#FFFFFF" cx="12.136" cy="5.534" r="0.67"/>
		<path fill="#FFEAA7" d="M10.407,10.523c2.891-0.064,3.271-2.238,5.595-2.238v6.154C13.764,14.439,10.407,12.201,10.407,10.523z"/>
		<ellipse fill="#F7F7F7" cx="20.136" cy="6.31" rx="1.818" ry="1.958"/>
		<ellipse fill="#2B3332" cx="20.136" cy="6.412" rx="1.259" ry="1.356"/>
		<circle fill="#F7F7F7" cx="19.886" cy="5.41" r="0.699"/>
		<path fill="#FFE28A" d="M21.596,10.523c-2.891-0.064-3.271-2.238-5.595-2.238v6.154C18.239,14.439,21.596,12.201,21.596,10.523z"
			/>
		<path fill="#FFE28A" d="M10.407,10.523c2.378,0.979,3.147,0.909,5.595,0.91c0,1.258,0,3.006,0,3.006
			C13.764,14.439,10.407,12.201,10.407,10.523z"/>
		<path fill="#FFD96C" d="M21.596,10.523c-2.378,0.979-3.147,0.909-5.595,0.91c0,1.258,0,3.006,0,3.006
			C18.239,14.439,21.596,12.201,21.596,10.523z"/>
		<circle fill="#FFA68E" cx="11.246" cy="10.803" r="1.399"/>
		<circle fill="#FF9A7E" cx="20.757" cy="10.803" r="1.399"/>
	</g>
</g>
</svg>
