<svg xmlns="http://www.w3.org/2000/svg" style="display: none;"><symbol id="pokemon-1" viewBox="0 0 126.813 126.813"><title>pokemon-1</title><g> <g> <g> <path style="fill:#8D9AA3;" d="M76.742,95.298L61.93,89.916l20.191-7.336c0.004-0.147,0.021-0.288,0.021-0.437 s-0.018-0.29-0.021-0.436L61.93,74.372l14.813-5.383c-3.398-3.444-8.115-5.582-13.336-5.582 c-10.348,0-18.738,8.389-18.738,18.736s8.391,18.737,18.738,18.737C68.627,100.881,73.344,98.741,76.742,95.298z"/> </g> <g> <path style="fill:#5E707A;" d="M67.021,76.331l0.148-0.055l-5.24-1.904l12.723-4.623c-1.951-1.029-4.166-1.621-6.525-1.621 c-7.74,0-14.016,6.276-14.016,14.016c0,7.74,6.275,14.016,14.016,14.016c2.359,0,4.574-0.592,6.525-1.622L61.93,89.916 l5.24-1.906l-0.148-0.054l15.105-5.486c0.006-0.109,0.016-0.217,0.016-0.326c0-0.11-0.01-0.217-0.016-0.326L67.021,76.331z"/> </g> <g> <path style="fill:#33363A;" d="M63.406,102.381c-11.159,0-20.238-9.079-20.238-20.237c0-11.158,9.079-20.236,20.238-20.236 c5.452,0,10.568,2.141,14.403,6.028c0.359,0.364,0.508,0.885,0.396,1.384c-0.112,0.498-0.471,0.905-0.95,1.08l-10.933,3.973 l16.312,5.926c0.579,0.21,0.971,0.753,0.986,1.37l0.008,0.126c0.008,0.115,0.015,0.23,0.015,0.349 c0,0.118-0.007,0.233-0.015,0.348L83.62,82.62c-0.016,0.616-0.407,1.16-0.986,1.37l-16.312,5.926l10.933,3.972 c0.479,0.174,0.838,0.582,0.95,1.08c0.112,0.499-0.036,1.02-0.396,1.384C73.973,100.24,68.857,102.381,63.406,102.381z M63.406,64.907c-9.505,0-17.238,7.732-17.238,17.236c0,9.505,7.733,17.237,17.238,17.237c3.829,0,7.463-1.241,10.454-3.534 l-12.443-4.521c-0.593-0.215-0.987-0.779-0.987-1.41s0.395-1.194,0.987-1.41l17.512-6.362l-17.512-6.362 c-0.593-0.215-0.987-0.779-0.987-1.41s0.395-1.194,0.987-1.41L73.86,68.44C70.871,66.147,67.236,64.907,63.406,64.907z"/> </g> </g> <g> <g> <g> <path style="fill:#8D9AA3;" d="M33.572,57.823L18.76,52.44l20.191-7.336c0.004-0.146,0.022-0.287,0.022-0.435 c0-0.148-0.018-0.29-0.022-0.437L18.76,36.897l14.813-5.383c-3.398-3.443-8.115-5.583-13.336-5.583 C9.889,25.932,1.5,34.321,1.5,44.67c0,10.348,8.389,18.737,18.736,18.737C25.457,63.407,30.174,61.267,33.572,57.823z"/> </g> <g> <path style="fill:#5E707A;" d="M23.853,38.856l0.149-0.055l-5.242-1.904l12.723-4.623c-1.949-1.029-4.166-1.62-6.523-1.62 c-7.742,0-14.018,6.276-14.018,14.016c0,7.739,6.275,14.015,14.018,14.015c2.357,0,4.574-0.591,6.523-1.621L18.76,52.44 l5.242-1.904l-0.149-0.054l15.104-5.487c0.008-0.108,0.016-0.217,0.016-0.325c0-0.11-0.008-0.218-0.016-0.326L23.853,38.856z"/> </g> <g> <path style="fill:#33363A;" d="M20.236,64.907C9.078,64.907,0,55.829,0,44.67c0-11.16,9.078-20.238,20.236-20.238 c5.451,0,10.566,2.141,14.403,6.029c0.359,0.364,0.508,0.885,0.396,1.384c-0.112,0.498-0.471,0.905-0.95,1.08l-10.933,3.973 l16.312,5.926c0.579,0.21,0.971,0.753,0.986,1.37l0.008,0.128c0.008,0.115,0.015,0.23,0.015,0.349 c0,0.118-0.007,0.232-0.015,0.347l-0.008,0.127c-0.016,0.616-0.407,1.159-0.986,1.37L23.152,52.44l10.933,3.973 c0.479,0.174,0.838,0.582,0.95,1.08c0.112,0.499-0.036,1.02-0.396,1.384C30.802,62.766,25.687,64.907,20.236,64.907z M20.236,27.432C10.732,27.432,3,35.165,3,44.67c0,9.505,7.732,17.237,17.236,17.237c3.828,0,7.463-1.241,10.454-3.535 L18.247,53.85c-0.593-0.215-0.987-0.779-0.987-1.41s0.395-1.194,0.987-1.41l17.511-6.362l-17.511-6.362 c-0.593-0.215-0.987-0.779-0.987-1.41s0.395-1.194,0.987-1.41l12.443-4.522C27.7,28.673,24.065,27.432,20.236,27.432z"/> </g> </g> <g> <g> <path style="fill:#8D9AA3;" d="M119.91,57.823l-14.813-5.383l20.191-7.336c0.004-0.146,0.023-0.287,0.023-0.435 c0-0.148-0.02-0.29-0.023-0.437l-20.191-7.336l14.813-5.383c-3.398-3.443-8.115-5.583-13.336-5.583 c-10.348,0-18.736,8.39-18.736,18.738c0,10.348,8.389,18.737,18.736,18.737C111.795,63.407,116.512,61.267,119.91,57.823z"/> </g> <g> <path style="fill:#5E707A;" d="M110.191,38.856l0.148-0.055l-5.242-1.904l12.723-4.623c-1.949-1.029-4.166-1.62-6.523-1.62 c-7.742,0-14.016,6.276-14.016,14.016c0,7.739,6.273,14.015,14.016,14.015c2.357,0,4.574-0.591,6.523-1.621l-12.723-4.623 l5.242-1.904l-0.148-0.054l15.104-5.487c0.008-0.108,0.018-0.217,0.018-0.325c0-0.11-0.01-0.218-0.018-0.326L110.191,38.856z"/> </g> <g> <path style="fill:#33363A;" d="M106.574,64.907c-11.158,0-20.236-9.079-20.236-20.237c0-11.16,9.078-20.238,20.236-20.238 c5.451,0,10.566,2.141,14.403,6.029c0.359,0.364,0.508,0.885,0.396,1.384c-0.112,0.498-0.471,0.905-0.95,1.08l-10.933,3.973 l16.312,5.926c0.579,0.21,0.971,0.753,0.986,1.37l0.008,0.121c0.009,0.118,0.017,0.235,0.017,0.356 c0,0.12-0.008,0.237-0.017,0.354l-0.008,0.12c-0.016,0.616-0.407,1.159-0.986,1.37L109.49,52.44l10.933,3.973 c0.479,0.174,0.838,0.582,0.95,1.08c0.112,0.499-0.036,1.02-0.396,1.384C117.14,62.766,112.024,64.907,106.574,64.907z M106.574,27.432c-9.504,0-17.236,7.733-17.236,17.238c0,9.505,7.732,17.237,17.236,17.237c3.828,0,7.463-1.241,10.454-3.535 l-12.443-4.522c-0.593-0.215-0.987-0.779-0.987-1.41s0.395-1.194,0.987-1.41l17.511-6.362l-17.511-6.362 c-0.593-0.215-0.987-0.779-0.987-1.41s0.395-1.194,0.987-1.41l12.443-4.522C114.038,28.673,110.403,27.432,106.574,27.432z"/> </g> </g> </g> </g><g> <g> <path style="fill:#33363A;" d="M77.838,47.349h-7.777c-0.828,0-1.5-0.671-1.5-1.5s0.672-1.5,1.5-1.5h7.777 c0.828,0,1.5,0.671,1.5,1.5S78.666,47.349,77.838,47.349z"/> </g> <g> <path style="fill:#33363A;" d="M63.627,47.349h-0.09c-0.828,0-1.5-0.671-1.5-1.5s0.672-1.5,1.5-1.5s1.545,0.671,1.545,1.5 S64.455,47.349,63.627,47.349z"/> </g> <g> <path style="fill:#33363A;" d="M58.436,47.349h-0.09c-0.828,0-1.5-0.671-1.5-1.5s0.672-1.5,1.5-1.5s1.545,0.671,1.545,1.5 S59.264,47.349,58.436,47.349z"/> </g> <g> <path style="fill:#33363A;" d="M53.244,47.349h-0.09c-0.828,0-1.5-0.671-1.5-1.5s0.672-1.5,1.5-1.5s1.545,0.671,1.545,1.5 S54.072,47.349,53.244,47.349z"/> </g> </g><g> <g> <path style="fill:#33363A;" d="M33.838,85.171h-7.777c-0.828,0-1.5-0.671-1.5-1.5s0.672-1.5,1.5-1.5h7.777 c0.828,0,1.5,0.671,1.5,1.5S34.666,85.171,33.838,85.171z"/> </g> <g> <path style="fill:#33363A;" d="M19.627,85.171h-0.09c-0.828,0-1.5-0.671-1.5-1.5s0.672-1.5,1.5-1.5s1.545,0.671,1.545,1.5 S20.455,85.171,19.627,85.171z"/> </g> <g> <path style="fill:#33363A;" d="M14.436,85.171h-0.09c-0.828,0-1.5-0.671-1.5-1.5s0.672-1.5,1.5-1.5s1.545,0.671,1.545,1.5 S15.264,85.171,14.436,85.171z"/> </g> <g> <path style="fill:#33363A;" d="M9.244,85.171h-0.09c-0.828,0-1.5-0.671-1.5-1.5s0.672-1.5,1.5-1.5s1.545,0.671,1.545,1.5 S10.072,85.171,9.244,85.171z"/> </g> </g></symbol><symbol id="pokemon" viewBox="0 0 127.586 127.586"><title>pokemon</title><g> <g> <path style="fill:#8D9AA3;" d="M41.314,47.316c0.545,11.882-13.086,0.925-24.303,0.925C5.793,48.241,1.5,47.243,1.5,42.386 c0-4.859,9.092-8.798,20.311-8.798C37.783,33.588,41.092,42.463,41.314,47.316z"/> </g> <g> <path style="fill:#5E707A;" d="M31.943,51.767c0.76-0.85,1.143-2.26,1.043-4.45c-0.203-4.419-2.969-12.171-15.52-13.522 C8.338,34.655,1.5,38.173,1.5,42.386c0,4.857,4.293,5.855,15.512,5.855C21.998,48.241,27.459,50.405,31.943,51.767z"/> </g> <g> <path style="fill:#33363A;" d="M37.367,54.344c-2.404,0-5.36-0.96-8.602-2.013c-3.738-1.214-7.975-2.59-11.754-2.59 C7.051,49.741,0,49.213,0,42.386c0-5.871,9.377-10.298,21.811-10.298c14.973,0,20.666,7.831,21.002,15.16l0,0 c0.136,2.952-0.528,4.944-2.031,6.089C39.838,54.056,38.686,54.344,37.367,54.344z M21.811,35.088 C10.726,35.088,3,38.934,3,42.386c0,3.012,2.023,4.355,14.012,4.355c4.254,0,8.73,1.454,12.681,2.737 c3.862,1.254,7.853,2.552,9.271,1.473c0.812-0.619,0.912-2.281,0.854-3.565l0,0C39.684,44.5,37.994,35.088,21.811,35.088z"/> </g> <g> <path style="fill:#33363A;" d="M41.33,34.801h-1.143c-0.828,0-1.5-0.671-1.5-1.5s0.672-1.5,1.5-1.5h1.143 c0.828,0,1.5,0.671,1.5,1.5S42.158,34.801,41.33,34.801z"/> </g> <g> <path style="fill:#33363A;" d="M44.389,38.63h-1.145c-0.828,0-1.5-0.671-1.5-1.5s0.672-1.5,1.5-1.5h1.145 c0.828,0,1.5,0.671,1.5,1.5S45.217,38.63,44.389,38.63z"/> </g> <g> <path style="fill:#33363A;" d="M46.303,42.65H45.16c-0.828,0-1.5-0.671-1.5-1.5s0.672-1.5,1.5-1.5h1.143 c0.828,0,1.5,0.671,1.5,1.5S47.131,42.65,46.303,42.65z"/> </g> <g> <path style="fill:#33363A;" d="M47.447,47.245h-1.145c-0.828,0-1.5-0.671-1.5-1.5s0.672-1.5,1.5-1.5h1.145 c0.828,0,1.5,0.671,1.5,1.5S48.275,47.245,47.447,47.245z"/> </g> <g> <path style="fill:#33363A;" d="M47.447,52.108h-1.145c-0.828,0-1.5-0.671-1.5-1.5s0.672-1.5,1.5-1.5h1.145 c0.828,0,1.5,0.671,1.5,1.5S48.275,52.108,47.447,52.108z"/> </g> </g><g> <g> <path style="fill:#8D9AA3;" d="M80.635,80.27c0.545-11.883-13.086-0.926-24.305-0.926c-11.217,0-15.51,0.998-15.51,5.855 c0,4.859,9.092,8.798,20.309,8.798C77.102,93.998,80.412,85.123,80.635,80.27z"/> </g> <g> <path style="fill:#5E707A;" d="M71.264,75.819c0.758,0.85,1.143,2.26,1.043,4.451c-0.203,4.418-2.971,12.17-15.52,13.522 C47.658,92.931,40.82,89.413,40.82,85.2c0-4.857,4.293-5.855,15.51-5.855C61.318,79.345,66.779,77.181,71.264,75.819z"/> </g> <g> <path style="fill:#33363A;" d="M80.65,95.785h-1.143c-0.828,0-1.5-0.671-1.5-1.5s0.672-1.5,1.5-1.5h1.143 c0.828,0,1.5,0.671,1.5,1.5S81.479,95.785,80.65,95.785z"/> </g> <g> <path style="fill:#33363A;" d="M83.709,91.956h-1.145c-0.828,0-1.5-0.671-1.5-1.5s0.672-1.5,1.5-1.5h1.145 c0.828,0,1.5,0.671,1.5,1.5S84.537,91.956,83.709,91.956z"/> </g> <g> <path style="fill:#33363A;" d="M85.623,87.936H84.48c-0.828,0-1.5-0.671-1.5-1.5s0.672-1.5,1.5-1.5h1.143 c0.828,0,1.5,0.671,1.5,1.5S86.451,87.936,85.623,87.936z"/> </g> <g> <path style="fill:#33363A;" d="M86.766,83.341h-1.143c-0.828,0-1.5-0.671-1.5-1.5s0.672-1.5,1.5-1.5h1.143 c0.828,0,1.5,0.671,1.5,1.5S87.594,83.341,86.766,83.341z"/> </g> <g> <path style="fill:#33363A;" d="M86.766,78.478h-1.143c-0.828,0-1.5-0.671-1.5-1.5s0.672-1.5,1.5-1.5h1.143 c0.828,0,1.5,0.671,1.5,1.5S87.594,78.478,86.766,78.478z"/> </g> <g> <path style="fill:#33363A;" d="M80.102,74.25c-2.664-2.033-6.999-0.625-12.017,1.005c-3.738,1.214-7.975,2.59-11.755,2.59 c-9.823,0-16.802,0.526-16.992,7.091h-7.207c-0.828,0-1.5,0.671-1.5,1.5s0.672,1.5,1.5,1.5h7.777c0.05,0,0.098-0.01,0.147-0.015 c2.406,4.462,10.655,7.577,21.074,7.577c19.33,0,20.888-12.627,21.004-15.159C82.269,77.387,81.604,75.395,80.102,74.25z M79.137,80.202c-0.133,2.885-1.822,12.296-18.008,12.296c-11.084,0-18.809-3.846-18.809-7.298c0-3.012,2.022-4.355,14.01-4.355 c4.255,0,8.731-1.454,12.682-2.737c2.851-0.925,5.772-1.875,7.677-1.875c0.676,0,1.224,0.12,1.595,0.402 C79.095,77.255,79.195,78.917,79.137,80.202z"/> <path style="fill:#33363A;" d="M25.607,84.936c-0.828,0-1.5,0.671-1.5,1.5s0.672,1.5,1.5,1.5h0.09c0.828,0,1.455-0.671,1.455-1.5 S26.436,84.936,25.607,84.936z"/> <path style="fill:#33363A;" d="M20.416,84.936c-0.828,0-1.5,0.671-1.5,1.5s0.672,1.5,1.5,1.5h0.09c0.828,0,1.455-0.671,1.455-1.5 S21.244,84.936,20.416,84.936z"/> <path style="fill:#33363A;" d="M15.225,84.936c-0.828,0-1.5,0.671-1.5,1.5s0.672,1.5,1.5,1.5h0.09c0.828,0,1.455-0.671,1.455-1.5 S16.053,84.936,15.225,84.936z"/> </g> </g><g> <g> <path style="fill:#8D9AA3;" d="M119.955,47.316c0.545,11.882-13.088,0.925-24.305,0.925s-15.512-0.998-15.512-5.855 c0-4.859,9.094-8.798,20.311-8.798C116.422,33.588,119.732,42.463,119.955,47.316z"/> </g> <g> <path style="fill:#5E707A;" d="M110.582,51.767c0.76-0.85,1.145-2.26,1.043-4.45c-0.203-4.419-2.969-12.171-15.52-13.522 c-9.127,0.861-15.967,4.379-15.967,8.592c0,4.857,4.295,5.855,15.512,5.855C100.637,48.241,106.1,50.405,110.582,51.767z"/> </g> <g> <path style="fill:#33363A;" d="M119.971,34.801h-1.145c-0.828,0-1.5-0.671-1.5-1.5s0.672-1.5,1.5-1.5h1.145 c0.828,0,1.5,0.671,1.5,1.5S120.799,34.801,119.971,34.801z"/> </g> <g> <path style="fill:#33363A;" d="M123.027,38.63h-1.143c-0.828,0-1.5-0.671-1.5-1.5s0.672-1.5,1.5-1.5h1.143 c0.828,0,1.5,0.671,1.5,1.5S123.855,38.63,123.027,38.63z"/> </g> <g> <path style="fill:#33363A;" d="M124.943,42.65h-1.145c-0.828,0-1.5-0.671-1.5-1.5s0.672-1.5,1.5-1.5h1.145 c0.828,0,1.5,0.671,1.5,1.5S125.771,42.65,124.943,42.65z"/> </g> <g> <path style="fill:#33363A;" d="M126.086,47.245h-1.143c-0.828,0-1.5-0.671-1.5-1.5s0.672-1.5,1.5-1.5h1.143 c0.828,0,1.5,0.671,1.5,1.5S126.914,47.245,126.086,47.245z"/> </g> <g> <path style="fill:#33363A;" d="M126.086,52.108h-1.143c-0.828,0-1.5-0.671-1.5-1.5s0.672-1.5,1.5-1.5h1.143 c0.828,0,1.5,0.671,1.5,1.5S126.914,52.108,126.086,52.108z"/> </g> <g> <path style="fill:#33363A;" d="M121.453,47.248c-0.336-7.329-6.03-15.16-21.004-15.16c-11.955,0-21.058,4.097-21.744,9.63 c-0.002,0-0.004-0.001-0.006-0.001h-7.777c-0.828,0-1.5,0.671-1.5,1.5s0.672,1.5,1.5,1.5h7.777c0.094,0,0.185-0.011,0.274-0.028 c1.504,4.647,7.98,5.051,16.677,5.051c3.779,0,8.016,1.376,11.754,2.59c3.242,1.053,6.198,2.013,8.604,2.013 c1.317,0,2.471-0.288,3.414-1.007C120.925,52.191,121.589,50.2,121.453,47.248z M117.604,50.951 c-1.418,1.078-5.411-0.219-9.272-1.473c-3.949-1.283-8.427-2.737-12.681-2.737c-11.988,0-14.012-1.344-14.012-4.355 c0-3.452,7.726-7.298,18.811-7.298c16.186,0,17.875,9.413,18.008,12.297C118.516,48.67,118.415,50.332,117.604,50.951z"/> <path style="fill:#33363A;" d="M64.398,41.718c-0.828,0-1.5,0.671-1.5,1.5s0.672,1.5,1.5,1.5h0.09c0.828,0,1.455-0.671,1.455-1.5 S65.227,41.718,64.398,41.718z"/> <path style="fill:#33363A;" d="M59.207,41.718c-0.828,0-1.5,0.671-1.5,1.5s0.672,1.5,1.5,1.5h0.09c0.828,0,1.455-0.671,1.455-1.5 S60.035,41.718,59.207,41.718z"/> <path style="fill:#33363A;" d="M54.018,41.718c-0.828,0-1.5,0.671-1.5,1.5s0.672,1.5,1.5,1.5h0.09c0.828,0,1.455-0.671,1.455-1.5 S54.846,41.718,54.018,41.718z"/> </g> </g></symbol><symbol id="pokedex" viewBox="0 0 127.441 127.441"><title>pokedex</title><g> <path style="fill:#FFFFFF;" d="M89.513,39.983c0-6.322-2.291-12.118-6.082-16.609V12.283c0-1.085-0.422-2.129-1.177-2.908 C77.344,4.297,70.763,1.5,63.723,1.5c-14.22,0-25.789,11.569-25.789,25.788c0,0.799,0.045,1.623,0.137,2.49 c-0.093,0.346-0.142,0.71-0.142,1.078v78.424c0,1.495,0.798,2.877,2.093,3.625l21.608,12.477c0.647,0.373,1.37,0.56,2.093,0.56 c0.723,0,1.445-0.187,2.093-0.56l15.522-8.963c1.295-0.748,2.093-2.131,2.093-3.625V56.593 C87.222,52.102,89.513,46.307,89.513,39.983z"/> </g><g> <path style="fill:#D3EFF4;" d="M89.152,44.196c-0.772-4.672-2.792-8.926-5.722-12.397v-8.426V20.71c0-1.088-0.422-2.13-1.177-2.91 c-4.91-5.078-11.491-7.875-18.531-7.875c-14.22,0-25.789,11.57-25.789,25.789c0,0.799,0.045,1.623,0.137,2.488 c-0.093,0.349-0.142,0.711-0.142,1.08v69.998c0,1.495,0.798,2.877,2.093,3.625l21.608,12.477c0.647,0.373,1.37,0.56,2.093,0.56 c0.723,0,1.445-0.187,2.093-0.56l15.522-8.963c1.295-0.748,2.093-2.131,2.093-3.625V65.019v-8.426 C86.36,53.122,88.38,48.866,89.152,44.196z"/> </g><g> <path style="fill:#33363A;" d="M63.723,127.441c-0.996,0-1.979-0.263-2.842-0.76l-21.609-12.478 c-1.754-1.013-2.843-2.899-2.843-4.924V30.856c0-0.397,0.042-0.792,0.124-1.179c-0.08-0.826-0.119-1.61-0.119-2.389 C36.434,12.241,48.676,0,63.723,0c7.45,0,14.414,2.959,19.609,8.333c1.03,1.063,1.599,2.467,1.599,3.951v10.551 c3.926,4.848,6.082,10.916,6.082,17.149s-2.156,12.301-6.082,17.149v55.662c0,2.024-1.089,3.911-2.843,4.924l-15.522,8.963 C65.701,127.179,64.719,127.441,63.723,127.441z M63.723,3C50.33,3,39.434,13.896,39.434,27.288c0,0.753,0.042,1.516,0.128,2.333 c0.02,0.183,0.005,0.369-0.042,0.546c-0.061,0.224-0.091,0.456-0.091,0.689v78.424c0,0.956,0.515,1.848,1.343,2.326l21.608,12.477 c0.814,0.469,1.87,0.47,2.687-0.001l15.521-8.962c0.828-0.479,1.343-1.37,1.343-2.326V56.593c0-0.354,0.125-0.697,0.354-0.968 c3.694-4.376,5.729-9.931,5.729-15.642s-2.034-11.266-5.729-15.642c-0.229-0.271-0.354-0.614-0.354-0.968V12.283 c0-0.7-0.268-1.362-0.754-1.865C76.551,5.634,70.353,3,63.723,3z"/> </g><g> <circle style="fill:#0086FF;" cx="63.721" cy="39.21" r="14.387"/> </g><g> <path style="fill:#FFFFFF;" d="M49.334,39.21c0,7.945,6.441,14.387,14.387,14.387s14.387-6.441,14.387-14.387H49.334z"/> </g><g> <path style="fill:#D8E5EA;" d="M63.721,50.23c7.945,0,14.387-4.934,14.387-11.02H49.334C49.334,45.296,55.775,50.23,63.721,50.23z "/> </g><path style="fill:#33363A;" d="M79.607,39.21c0-8.257-6.334-15.057-14.398-15.811c0.003-0.037,0.011-0.073,0.011-0.111v-7.063 c0-0.829-0.672-1.5-1.5-1.5s-1.5,0.671-1.5,1.5v7.063c0,0.038,0.008,0.073,0.011,0.111c-8.064,0.754-14.398,7.554-14.398,15.811 s6.334,15.058,14.398,15.811c-0.003,0.037-0.011,0.073-0.011,0.111v7.063c0,0.829,0.672,1.5,1.5,1.5s1.5-0.671,1.5-1.5v-7.063 c0-0.038-0.008-0.073-0.011-0.111C73.273,54.267,79.607,47.467,79.607,39.21z M63.721,26.323c6.597,0,12.045,4.986,12.792,11.387 H50.929C51.675,31.309,57.123,26.323,63.721,26.323z M63.721,52.097c-6.597,0-12.045-4.986-12.792-11.387h25.584 C75.766,47.111,70.318,52.097,63.721,52.097z"/><g> <path style="fill:#33363A;" d="M48.744,87.882c-2.087,0-3.785-1.698-3.785-3.785s1.698-3.785,3.785-3.785s3.785,1.698,3.785,3.785 S50.831,87.882,48.744,87.882z M48.744,83.312c-0.433,0-0.785,0.352-0.785,0.785s0.353,0.785,0.785,0.785s0.785-0.352,0.785-0.785 S49.177,83.312,48.744,83.312z"/> </g><g> <path style="fill:#33363A;" d="M51.029,96.915h-4.57c-0.828,0-1.5-0.671-1.5-1.5s0.672-1.5,1.5-1.5h4.57 c0.828,0,1.5,0.671,1.5,1.5S51.857,96.915,51.029,96.915z"/> </g><g> <path style="fill:#33363A;" d="M51.029,103.717h-4.57c-0.828,0-1.5-0.671-1.5-1.5s0.672-1.5,1.5-1.5h4.57 c0.828,0,1.5,0.671,1.5,1.5S51.857,103.717,51.029,103.717z"/> </g><g> <g> <circle style="fill:#A7BBC1;" cx="63.721" cy="40.857" r="4.757"/> </g> <g> <circle style="fill:#FFFFFF;" cx="63.721" cy="39.24" r="4.757"/> </g> <g> <path style="fill:#D8E5EA;" d="M60.357,42.605c-1.857-1.857-1.857-4.871,0-6.729s4.869-1.857,6.727,0"/> </g> <g> <path style="fill:#33363A;" d="M63.721,45.494c-1.603,0-3.204-0.609-4.424-1.828c-2.44-2.44-2.44-6.41,0-8.85 c2.439-2.439,6.408-2.439,8.848,0c2.44,2.44,2.44,6.41,0,8.85C66.925,44.884,65.322,45.494,63.721,45.494z M63.721,35.984 c-0.834,0-1.668,0.317-2.303,0.952c-1.271,1.271-1.271,3.337,0,4.607c1.27,1.269,3.336,1.269,4.605,0 c1.271-1.27,1.271-3.336,0-4.607C65.389,36.302,64.555,35.984,63.721,35.984z"/> </g> </g></symbol><symbol id="pokeballs" viewBox="0 0 127.314 127.314"><title>pokeballs</title><g> <circle style="fill:#FF1A1A;" cx="32.237" cy="90.36" r="30.737"/> </g><g> <ellipse style="fill:#D60909;" cx="32.237" cy="90.36" rx="30.737" ry="23.543"/> </g><g> <path style="fill:#FFFFFF;" d="M1.5,90.36c0,16.978,13.761,30.737,30.737,30.737c16.975,0,30.736-13.76,30.736-30.737H1.5z"/> </g><g> <path style="fill:#D8E5EA;" d="M32.237,113.903c16.975,0,30.736-10.541,30.736-23.543H1.5 C1.5,103.362,15.261,113.903,32.237,113.903z"/> </g><path style="fill:#33363A;" d="M32.237,58.124C14.461,58.124,0,72.584,0,90.36c0,17.776,14.461,32.237,32.237,32.237 s32.236-14.461,32.236-32.237C64.473,72.584,50.012,58.124,32.237,58.124z M32.237,61.124c15.618,0,28.415,12.31,29.198,27.736 H3.038C3.821,73.433,16.619,61.124,32.237,61.124z M32.237,119.597c-15.618,0-28.415-12.31-29.199-27.737h58.397 C60.652,107.287,47.855,119.597,32.237,119.597z"/><g> <g> <circle style="fill:#A7BBC1;" cx="32.237" cy="93.438" r="9.308"/> </g> <g> <circle style="fill:#FFFFFF;" cx="32.237" cy="90.272" r="9.308"/> </g> <g> <path style="fill:#D8E5EA;" d="M25.655,96.854c-3.635-3.634-3.635-9.527,0-13.164c3.635-3.633,9.528-3.633,13.163,0"/> </g> <g> <path style="fill:#33363A;" d="M32.237,101.08c-2.887,0-5.601-1.124-7.642-3.166c-2.042-2.041-3.166-4.754-3.166-7.642 c0-2.887,1.125-5.601,3.166-7.644c4.215-4.212,11.07-4.211,15.284,0c0,0,0,0,0,0c2.042,2.042,3.166,4.757,3.166,7.644 c0,2.887-1.125,5.601-3.166,7.642C37.837,99.956,35.124,101.08,32.237,101.08z M32.237,82.469c-2,0-3.999,0.761-5.521,2.282 c-1.475,1.475-2.287,3.437-2.287,5.522s0.813,4.046,2.287,5.52c1.475,1.475,3.436,2.287,5.521,2.287s4.046-0.812,5.521-2.287 c1.475-1.475,2.287-3.435,2.287-5.521s-0.812-4.047-2.287-5.522C36.236,83.229,34.236,82.469,32.237,82.469z"/> </g> </g><g> <circle style="fill:#FF1A1A;" cx="62.973" cy="36.955" r="30.737"/> </g><g> <ellipse style="fill:#D60909;" cx="62.973" cy="36.955" rx="30.737" ry="23.542"/> </g><g> <path style="fill:#FFFFFF;" d="M32.237,36.955c0,16.977,13.761,30.737,30.737,30.737c16.975,0,30.736-13.76,30.736-30.737H32.237z "/> </g><g> <path style="fill:#D8E5EA;" d="M62.974,60.497c16.975,0,30.736-10.541,30.736-23.542H32.237 C32.237,49.956,45.998,60.497,62.974,60.497z"/> </g><path style="fill:#33363A;" d="M62.974,4.717c-17.775,0-32.237,14.461-32.237,32.237s14.461,32.237,32.237,32.237 S95.21,54.73,95.21,36.955S80.749,4.717,62.974,4.717z M62.974,7.717c15.618,0,28.415,12.31,29.198,27.737H33.775 C34.558,20.027,47.356,7.717,62.974,7.717z M62.974,66.192c-15.618,0-28.415-12.31-29.199-27.737h58.397 C91.388,53.882,78.592,66.192,62.974,66.192z"/><g> <g> <circle style="fill:#A7BBC1;" cx="62.973" cy="40.033" r="9.309"/> </g> <g> <circle style="fill:#FFFFFF;" cx="62.973" cy="36.867" r="9.308"/> </g> <g> <path style="fill:#D8E5EA;" d="M56.392,43.449c-3.635-3.635-3.635-9.528,0-13.163c3.635-3.635,9.528-3.635,13.163,0"/> </g> <g> <path style="fill:#33363A;" d="M62.974,47.675c-2.887,0-5.601-1.124-7.642-3.166c-2.042-2.041-3.166-4.755-3.166-7.642 s1.125-5.601,3.166-7.642c2.041-2.042,4.755-3.166,7.642-3.166s5.601,1.124,7.642,3.165l0,0c0,0,0,0,0,0 c2.042,2.041,3.166,4.755,3.166,7.642c0,2.887-1.124,5.601-3.166,7.643C68.574,46.551,65.86,47.675,62.974,47.675z M62.974,29.06 c-2.085,0-4.046,0.812-5.521,2.287s-2.287,3.436-2.287,5.521s0.813,4.046,2.287,5.521s3.436,2.287,5.521,2.287 s4.046-0.812,5.521-2.287c1.475-1.475,2.287-3.436,2.287-5.521s-0.812-4.046-2.287-5.521c0,0,0,0,0,0 C67.02,29.872,65.059,29.06,62.974,29.06z"/> </g> </g><g> <circle style="fill:#FF1A1A;" cx="95.078" cy="90.36" r="30.737"/> </g><g> <ellipse style="fill:#D60909;" cx="95.078" cy="90.36" rx="30.737" ry="23.543"/> </g><g> <path style="fill:#FFFFFF;" d="M64.341,90.36c0,16.978,13.761,30.737,30.737,30.737c16.975,0,30.736-13.76,30.736-30.737H64.341z"/> </g><g> <path style="fill:#D8E5EA;" d="M95.078,113.903c16.975,0,30.736-10.541,30.736-23.543H64.341 C64.341,103.362,78.103,113.903,95.078,113.903z"/> </g><path style="fill:#33363A;" d="M95.078,58.124c-17.775,0-32.237,14.461-32.237,32.236c0,17.776,14.461,32.237,32.237,32.237 s32.236-14.461,32.236-32.237C127.314,72.584,112.854,58.124,95.078,58.124z M95.078,61.124c15.618,0,28.415,12.31,29.198,27.736 H65.879C66.663,73.433,79.46,61.124,95.078,61.124z M95.078,119.597c-15.618,0-28.415-12.31-29.199-27.737h58.397 C123.493,107.287,110.696,119.597,95.078,119.597z"/><g> <g> <circle style="fill:#A7BBC1;" cx="95.078" cy="93.438" r="9.308"/> </g> <g> <circle style="fill:#FFFFFF;" cx="95.078" cy="90.272" r="9.308"/> </g> <g> <path style="fill:#D8E5EA;" d="M88.497,96.854c-3.635-3.634-3.635-9.527,0-13.164c3.635-3.633,9.528-3.633,13.163,0"/> </g> <g> <path style="fill:#33363A;" d="M95.078,101.08c-2.887,0-5.601-1.124-7.642-3.166c-2.042-2.041-3.166-4.754-3.166-7.642 c0-2.887,1.125-5.601,3.166-7.644c4.215-4.212,11.07-4.211,15.284,0c0,0,0,0,0,0c2.042,2.042,3.166,4.757,3.166,7.644 c0,2.887-1.125,5.601-3.166,7.642C100.679,99.956,97.965,101.08,95.078,101.08z M95.078,82.469c-2,0-3.999,0.761-5.521,2.282 c-1.475,1.475-2.287,3.437-2.287,5.522s0.813,4.046,2.287,5.52c1.475,1.475,3.436,2.287,5.521,2.287s4.046-0.812,5.521-2.287 c1.475-1.475,2.287-3.435,2.287-5.521s-0.812-4.047-2.287-5.522C99.077,83.229,97.077,82.469,95.078,82.469z"/> </g> </g></symbol><symbol id="superball" viewBox="0 0 126.334 126.334"><title>superball</title><g> <circle style="fill:#7BC7FF;" cx="63.167" cy="63.166" r="61.666"/> </g><g> <ellipse style="fill:#0086FF;" cx="63.167" cy="63.166" rx="61.666" ry="47.232"/> </g><g> <g> <path style="fill:#FF6666;" d="M5.681,40.853h35.787v-13.5H12.981C10.017,31.501,7.554,36.029,5.681,40.853z"/> </g> <g> <path style="fill:#FF1A1A;" d="M8.81,40.853h32.658v-13.5H22.985C17.247,31.135,12.419,35.705,8.81,40.853z"/> </g> <g> <path style="fill:#FF6666;" d="M113.352,27.353H84.866v13.5h35.787C118.78,36.029,116.317,31.501,113.352,27.353z"/> </g> <g> <path style="fill:#FF1A1A;" d="M103.349,27.353H84.866v13.5h32.658C113.915,35.705,109.087,31.135,103.349,27.353z"/> </g> </g><g> <path style="fill:#FFFFFF;" d="M1.501,63.166c0,34.061,27.609,61.668,61.666,61.668s61.666-27.607,61.666-61.668H1.501z"/> </g><g> <path style="fill:#D8E5EA;" d="M63.167,110.398c34.057,0,61.666-21.148,61.666-47.232H1.501 C1.501,89.25,29.11,110.398,63.167,110.398z"/> </g><path style="fill:#33363A;" d="M122.08,40.422c-0.011-0.037-0.014-0.075-0.028-0.111c-0.177-0.457-0.366-0.91-0.554-1.363 c-0.06-0.143-0.115-0.289-0.175-0.431c-0.35-0.826-0.724-1.641-1.11-2.451c-0.08-0.167-0.16-0.334-0.241-0.5 c-0.841-1.728-1.762-3.418-2.759-5.064c-0.022-0.036-0.044-0.073-0.066-0.109c-0.811-1.332-1.665-2.64-2.574-3.911 c-0.044-0.061-0.099-0.111-0.15-0.165C102.943,10.394,84.251,0,63.167,0S23.391,10.394,11.912,26.316 c-0.052,0.053-0.107,0.103-0.15,0.165c-0.909,1.271-1.763,2.578-2.574,3.911c-0.022,0.036-0.044,0.073-0.066,0.109 c-0.997,1.647-1.918,3.336-2.759,5.064c-0.081,0.166-0.161,0.333-0.241,0.5c-0.386,0.811-0.76,1.627-1.111,2.453 c-0.06,0.141-0.114,0.284-0.173,0.425c-0.189,0.454-0.378,0.909-0.556,1.368c-0.014,0.036-0.017,0.074-0.028,0.111 c-2.736,7.062-4.253,14.727-4.253,22.744c0,34.831,28.336,63.168,63.166,63.168s63.166-28.337,63.166-63.168 C126.333,55.149,124.816,47.484,122.08,40.422z M118.389,39.354H86.366v-10.5h26.183C114.831,32.13,116.786,35.648,118.389,39.354z M13.785,28.854h26.183v10.5H7.945C9.548,35.648,11.503,32.13,13.785,28.854z M6.747,42.354h34.721c0.829,0,1.5-0.671,1.5-1.5 v-13.5c0-0.829-0.671-1.5-1.5-1.5H16.032C27.057,11.945,44.079,3,63.167,3s36.11,8.945,47.135,22.854H84.866 c-0.829,0-1.5,0.671-1.5,1.5v13.5c0,0.829,0.671,1.5,1.5,1.5h34.721c2.236,6.046,3.541,12.539,3.708,19.313H3.039 C3.206,54.892,4.511,48.399,6.747,42.354z M63.167,123.334c-32.673,0-59.327-26.184-60.128-58.668h120.256 C122.494,97.15,95.84,123.334,63.167,123.334z"/><g> <g> <circle style="fill:#A7BBC1;" cx="63.167" cy="68.868" r="16.764"/> </g> <g> <circle style="fill:#FFFFFF;" cx="63.167" cy="63.167" r="16.764"/> </g> <g> <path style="fill:#D8E5EA;" d="M51.313,75.021c-6.547-6.547-6.547-17.16,0-23.709c6.547-6.546,17.162-6.546,23.707,0"/> </g> <g> <path style="fill:#33363A;" d="M63.167,81.432c-4.878,0-9.465-1.9-12.915-5.35c-7.121-7.12-7.121-18.708,0-25.83 c3.45-3.449,8.037-5.349,12.915-5.349c4.879,0,9.465,1.899,12.914,5.349h0c7.12,7.123,7.12,18.71,0,25.83 C72.633,79.532,68.046,81.432,63.167,81.432z M63.167,47.903c-4.077,0-7.91,1.587-10.793,4.47 c-5.951,5.953-5.951,15.637,0,21.588c2.883,2.883,6.716,4.471,10.793,4.471c4.078,0,7.91-1.588,10.792-4.471 c5.951-5.951,5.951-15.635,0-21.588C71.078,49.491,67.245,47.903,63.167,47.903z"/> </g> </g><g> <g> <path style="fill:#FFFFFF;" d="M68.87,68.87c-3.148,3.146-8.256,3.146-11.404,0c-3.148-3.15-3.148-8.255,0-11.403 c3.148-3.15,8.256-3.148,11.404,0C72.019,60.615,72.019,65.72,68.87,68.87z"/> </g> <g> <path style="fill:#D8E5EA;" d="M57.466,57.467c3.148-3.15,8.256-3.148,11.404,0c3.148,3.148,3.148,8.253,0,11.403"/> </g> <g> <path style="fill:#33363A;" d="M63.168,72.725c-2.449,0-4.898-0.931-6.762-2.794c-3.729-3.73-3.728-9.797,0-13.525 c1.805-1.807,4.207-2.802,6.762-2.802c0,0,0,0,0.001,0c2.555,0,4.957,0.996,6.763,2.802c3.728,3.728,3.728,9.794,0,13.524 c0,0,0,0-0.001,0C68.066,71.794,65.617,72.725,63.168,72.725z M63.167,56.604c-1.753,0-3.401,0.683-4.64,1.923 c-2.559,2.559-2.559,6.722,0,9.282c2.56,2.558,6.724,2.557,9.283,0c2.558-2.561,2.558-6.724,0-9.282 C66.57,57.288,64.921,56.605,63.167,56.604C63.167,56.604,63.167,56.604,63.167,56.604z"/> </g> </g></symbol><symbol id="mega-ball" viewBox="0 0 126.334 126.334"><title>mega-ball</title><g> <g> <circle style="fill:#D988FF;" cx="63.167" cy="63.166" r="61.666"/> </g> <g> <ellipse style="fill:#BF44F2;" cx="63.167" cy="63.166" rx="61.666" ry="47.232"/> </g> <g> <path style="fill:#D988FF;" d="M120.31,39.977c-5.887-14.487-17.115-26.225-31.248-32.775c-2.014,3.475-3.174,7.508-3.174,11.813 c0,13.03,10.564,23.595,23.596,23.595C113.386,42.609,117.065,41.655,120.31,39.977z"/> </g> <g> <path style="fill:#D988FF;" d="M6.026,39.977c3.242,1.679,6.92,2.633,10.824,2.633c13.031,0,23.596-10.565,23.596-23.595 c0-4.306-1.16-8.339-3.174-11.813C23.14,13.752,11.911,25.489,6.026,39.977z"/> </g> <g> <path style="fill:#FFFFFF;" d="M1.501,63.166c0,34.061,27.609,61.668,61.666,61.668c34.057,0,61.666-27.607,61.666-61.668H1.501z "/> </g> <g> <path style="fill:#D8E5EA;" d="M63.167,110.398c34.057,0,61.666-21.148,61.666-47.232H1.501 C1.501,89.25,29.11,110.398,63.167,110.398z"/> </g> <path style="fill:#33363A;" d="M121.718,39.505c-0.01-0.031-0.006-0.063-0.019-0.093c-0.064-0.156-0.136-0.307-0.201-0.463 c-0.148-0.356-0.306-0.708-0.46-1.061c-0.27-0.618-0.545-1.234-0.834-1.841c-0.106-0.223-0.217-0.443-0.326-0.665 c-0.367-0.749-0.745-1.491-1.14-2.222c-0.036-0.066-0.073-0.131-0.109-0.197c-5.328-9.796-13.119-17.965-22.657-23.756 c-0.043-0.026-0.085-0.053-0.128-0.079c-0.732-0.442-1.474-0.868-2.226-1.281c-0.196-0.108-0.391-0.219-0.589-0.325 c-0.612-0.328-1.232-0.643-1.857-0.952c-0.327-0.162-0.652-0.326-0.982-0.483c-0.168-0.08-0.33-0.167-0.499-0.246 c-0.032-0.015-0.066-0.012-0.098-0.025C81.548,2.093,72.6,0,63.167,0c-9.433,0-18.381,2.093-26.428,5.816 c-0.032,0.012-0.066,0.01-0.098,0.025c-0.169,0.078-0.331,0.166-0.499,0.246c-0.33,0.157-0.656,0.321-0.983,0.484 c-0.624,0.309-1.244,0.623-1.855,0.951c-0.198,0.107-0.394,0.217-0.591,0.326c-0.751,0.413-1.493,0.839-2.224,1.28 c-0.043,0.026-0.086,0.053-0.13,0.08C20.839,14.989,13.059,23.14,7.733,32.913C7.682,33.007,7.63,33.1,7.579,33.194 c-0.376,0.698-0.736,1.405-1.087,2.119c-0.127,0.258-0.257,0.515-0.381,0.776c-0.267,0.563-0.521,1.134-0.773,1.706 c-0.176,0.399-0.353,0.797-0.521,1.201c-0.058,0.14-0.123,0.275-0.18,0.416c-0.011,0.027-0.007,0.056-0.017,0.083 c-2.969,7.316-4.619,15.302-4.619,23.671c0,34.831,28.336,63.168,63.166,63.168s63.166-28.337,63.166-63.168 C126.333,54.801,124.684,46.818,121.718,39.505z M89.698,9.183c12.756,6.295,22.969,16.975,28.663,30.064 c-2.801,1.237-5.781,1.862-8.878,1.862c-12.184,0-22.096-9.912-22.096-22.095C87.388,15.599,88.183,12.229,89.698,9.183z M86.976,7.922c-1.697,3.44-2.588,7.241-2.588,11.093c0,13.837,11.258,25.095,25.096,25.095c3.488,0,6.846-0.703,10.005-2.085 c2.311,6.136,3.637,12.747,3.807,19.642H3.039c0.17-6.895,1.496-13.505,3.807-19.642c3.158,1.382,6.515,2.085,10.005,2.085 c13.838,0,25.096-11.257,25.096-25.095c0-3.851-0.891-7.653-2.588-11.093C46.665,4.761,54.713,3,63.167,3 S79.669,4.761,86.976,7.922z M8.87,37.266c0.029-0.06,0.055-0.122,0.084-0.183c5.847-12.103,15.635-21.955,27.682-27.9 c1.515,3.046,2.311,6.416,2.311,9.832c0,12.183-9.912,22.095-22.096,22.095c-3.098,0-6.078-0.626-8.877-1.863 C8.263,38.581,8.557,37.919,8.87,37.266z M63.167,123.334c-32.673,0-59.327-26.184-60.128-58.668h120.256 C122.494,97.15,95.84,123.334,63.167,123.334z"/> <g> <g> <circle style="fill:#A7BBC1;" cx="63.167" cy="68.868" r="16.764"/> </g> <g> <circle style="fill:#FFFFFF;" cx="63.167" cy="63.167" r="16.764"/> </g> <g> <path style="fill:#D8E5EA;" d="M51.313,75.021c-6.547-6.547-6.547-17.16,0-23.709c6.547-6.546,17.162-6.546,23.707,0"/> </g> <g> <path style="fill:#33363A;" d="M63.167,81.432c-4.878,0-9.465-1.9-12.915-5.35c-7.121-7.12-7.121-18.708,0-25.83 c3.45-3.449,8.037-5.349,12.915-5.349c4.879,0,9.465,1.899,12.914,5.349h0c7.12,7.123,7.12,18.71,0,25.83 C72.633,79.532,68.046,81.432,63.167,81.432z M63.167,47.903c-4.077,0-7.91,1.587-10.793,4.47 c-5.951,5.953-5.951,15.637,0,21.588c2.883,2.883,6.716,4.471,10.793,4.471c4.078,0,7.91-1.588,10.792-4.471 c5.951-5.951,5.951-15.635,0-21.588C71.078,49.491,67.245,47.903,63.167,47.903z"/> </g> </g> <g> <g> <path style="fill:#FFFFFF;" d="M68.87,68.87c-3.148,3.146-8.256,3.146-11.404,0c-3.148-3.15-3.148-8.255,0-11.403 c3.149-3.15,8.256-3.148,11.404,0C72.019,60.615,72.019,65.72,68.87,68.87z"/> </g> <g> <path style="fill:#D8E5EA;" d="M57.466,57.467c3.149-3.15,8.256-3.148,11.404,0c3.148,3.148,3.148,8.253,0,11.403"/> </g> <g> <path style="fill:#33363A;" d="M63.168,72.725c-2.449,0-4.898-0.931-6.762-2.794c-3.729-3.73-3.728-9.797,0-13.525 c1.805-1.807,4.207-2.802,6.762-2.802c0,0,0,0,0.001,0c2.555,0,4.957,0.996,6.763,2.802c3.728,3.728,3.728,9.794,0,13.524 c0,0,0,0-0.001,0C68.066,71.794,65.617,72.725,63.168,72.725z M63.167,56.604c-1.753,0-3.401,0.683-4.64,1.923 c-2.559,2.559-2.559,6.722,0,9.282c2.56,2.558,6.724,2.557,9.283,0c2.558-2.561,2.558-6.724,0-9.282 C66.57,57.288,64.921,56.605,63.167,56.604C63.167,56.604,63.167,56.604,63.167,56.604z"/> </g> </g> </g><path style="fill:#33363A;" d="M70.417,23.405h-14.5c-0.829,0-1.5,0.671-1.5,1.5v12.174c0,0.829,0.671,1.5,1.5,1.5 s1.5-0.671,1.5-1.5V26.405h4.25v10.674c0,0.829,0.671,1.5,1.5,1.5s1.5-0.671,1.5-1.5V26.405h4.25v10.674c0,0.829,0.671,1.5,1.5,1.5 s1.5-0.671,1.5-1.5V24.905C71.917,24.077,71.246,23.405,70.417,23.405z"/></symbol><symbol id="ultra-ball" viewBox="0 0 126.334 126.334"><title>ultra-ball</title><g> <circle style="fill:#4E5154;" cx="63.167" cy="63.166" r="61.667"/> </g><g> <ellipse style="fill:#33363A;" cx="63.167" cy="63.166" rx="61.667" ry="47.232"/> </g><g> <path style="fill:#FFDB80;" d="M100.578,14.155C90.201,6.223,77.238,1.5,63.168,1.5c-14.072,0-27.035,4.723-37.412,12.656V64.62 h74.822V14.155z"/> </g><g> <path style="fill:#FFBE08;" d="M100.578,25.627c-10.377-6.076-23.34-9.693-37.41-9.693c-14.072,0-27.035,3.617-37.412,9.693V64.62 h74.822V25.627z"/> </g><g> <path style="fill:#33363A;" d="M64.652,25.096h-2.971c-13.252,0-23.996,10.746-23.996,23.999V64.62h50.963V49.095 C88.648,35.842,77.904,25.096,64.652,25.096z"/> </g><g> <path style="fill:#FFFFFF;" d="M1.5,63.166c0,34.061,27.609,61.668,61.668,61.668c34.057,0,61.666-27.607,61.666-61.668H1.5z"/> </g><g> <path style="fill:#D8E5EA;" d="M63.168,110.398c34.057,0,61.666-21.148,61.666-47.232H1.5 C1.5,89.25,29.109,110.398,63.168,110.398z"/> </g><path style="fill:#33363A;" d="M63.168,0C28.337,0,0,28.336,0,63.166c0,34.831,28.337,63.168,63.168,63.168 c34.83,0,63.166-28.337,63.166-63.168C126.334,28.336,97.998,0,63.168,0z M63.168,3c32.673,0,59.327,26.183,60.128,58.666H3.038 C3.839,29.183,30.494,3,63.168,3z M63.168,123.334c-32.674,0-59.329-26.184-60.13-58.668h120.258 C122.495,97.15,95.841,123.334,63.168,123.334z"/><g> <g> <path style="fill:#A7BBC1;" d="M75.019,57.014c6.549,6.549,6.549,17.161,0,23.709c-6.545,6.549-17.16,6.549-23.705,0 c-6.547-6.548-6.547-17.16,0-23.709C57.859,50.467,68.475,50.467,75.019,57.014z"/> </g> <g> <path style="fill:#FFFFFF;" d="M75.019,51.312c6.549,6.549,6.549,17.162,0,23.709c-6.545,6.547-17.16,6.547-23.705,0 c-6.547-6.547-6.547-17.16,0-23.709C57.859,44.767,68.475,44.767,75.019,51.312z"/> </g> <g> <path style="fill:#D8E5EA;" d="M51.314,75.021c-6.547-6.547-6.547-17.16,0-23.709c6.545-6.546,17.16-6.546,23.705,0"/> </g> <g> <path style="fill:#33363A;" d="M63.167,81.432c-4.878,0-9.465-1.9-12.914-5.35c-7.12-7.12-7.12-18.708,0-25.83 c3.449-3.449,8.035-5.349,12.914-5.349s9.464,1.899,12.913,5.349l0,0l0,0c3.451,3.451,5.351,8.038,5.351,12.916 c0,4.878-1.9,9.465-5.351,12.915C72.632,79.532,68.045,81.432,63.167,81.432z M63.167,47.903c-4.077,0-7.91,1.587-10.792,4.47 c-5.951,5.953-5.951,15.637,0,21.588c2.882,2.883,6.715,4.471,10.792,4.471s7.91-1.588,10.792-4.471 c2.884-2.883,4.473-6.716,4.473-10.793c0-4.077-1.588-7.91-4.472-10.794l0,0C71.077,49.491,67.244,47.903,63.167,47.903z"/> </g> </g><g> <g> <path style="fill:#FFFFFF;" d="M68.871,68.87c-3.15,3.146-8.256,3.146-11.404,0c-3.148-3.15-3.148-8.255,0-11.403 c3.148-3.15,8.254-3.148,11.404,0C72.019,60.615,72.019,65.72,68.871,68.87z"/> </g> <g> <path style="fill:#D8E5EA;" d="M57.467,57.467c3.148-3.15,8.254-3.148,11.404,0c3.148,3.148,3.148,8.253,0,11.403"/> </g> <g> <path style="fill:#33363A;" d="M63.168,72.725c-2.449,0-4.898-0.931-6.762-2.793c-3.729-3.73-3.728-9.797,0-13.525 c1.805-1.807,4.207-2.802,6.761-2.802c0,0,0,0,0.001,0c2.554,0,4.956,0.995,6.763,2.801c3.728,3.728,3.728,9.795,0,13.525 c0,0-0.001,0-0.001,0.001C68.066,71.793,65.617,72.725,63.168,72.725z M63.167,56.604c-1.753,0-3.4,0.683-4.639,1.923 c-2.559,2.559-2.559,6.722,0,9.282c2.559,2.557,6.723,2.556,9.283,0c2.557-2.56,2.557-6.724,0-9.282 C66.57,57.288,64.921,56.605,63.167,56.604C63.168,56.604,63.167,56.604,63.167,56.604z"/> </g> </g></symbol><symbol id="backpack" viewBox="0 0 126.935 126.935"><title>backpack</title><g> <path style="fill:#FF1A1A;" d="M21.528,104.172c0,4.52-3.662,8.181-8.182,8.181l0,0c-4.519,0-8.182-3.661-8.182-8.181V80.436 c0-4.52,3.662-8.183,8.182-8.183l0,0c4.519,0,8.182,3.663,8.182,8.183V104.172z"/> </g><g> <path style="fill:#FF7676;" d="M13.346,72.254c-4.519,0-8.182,3.663-8.182,8.183v1.61c0,4.519,3.662,8.181,8.182,8.181 s8.182-3.662,8.182-8.181v-1.61C21.528,75.917,17.866,72.254,13.346,72.254z"/> </g><g> <path style="fill:#33363A;" d="M13.346,113.853c-5.339,0-9.682-4.343-9.682-9.681V80.437c0-5.339,4.343-9.683,9.682-9.683 s9.682,4.344,9.682,9.683v23.735C23.028,109.51,18.685,113.853,13.346,113.853z M13.346,73.754c-3.685,0-6.682,2.998-6.682,6.683 v23.735c0,3.684,2.997,6.681,6.682,6.681s6.682-2.997,6.682-6.681V80.437C20.028,76.752,17.031,73.754,13.346,73.754z"/> </g><g> <path style="fill:#FF1A1A;" d="M121.77,104.172c0,4.52-3.662,8.181-8.183,8.181l0,0c-4.519,0-8.181-3.661-8.181-8.181V80.436 c0-4.52,3.662-8.183,8.181-8.183l0,0c4.521,0,8.183,3.663,8.183,8.183V104.172z"/> </g><g> <path style="fill:#FF7676;" d="M113.587,72.254c-4.519,0-8.181,3.663-8.181,8.183v1.61c0,4.519,3.662,8.181,8.181,8.181 c4.521,0,8.183-3.662,8.183-8.181v-1.61C121.77,75.917,118.108,72.254,113.587,72.254z"/> </g><g> <path style="fill:#33363A;" d="M113.587,113.853c-5.338,0-9.681-4.343-9.681-9.681V80.437c0-5.339,4.343-9.683,9.681-9.683 c5.339,0,9.683,4.344,9.683,9.683v23.735C123.27,109.51,118.926,113.853,113.587,113.853z M113.587,73.754 c-3.684,0-6.681,2.998-6.681,6.683v23.735c0,3.684,2.997,6.681,6.681,6.681c3.685,0,6.683-2.997,6.683-6.681V80.437 C120.27,76.752,117.272,73.754,113.587,73.754z"/> </g><g> <path style="fill:#8DE4FF;" d="M66.922,11.39H60.01c-24.771,0-44.926,20.156-44.926,44.928v51.838 c0,9.543,7.734,17.279,17.279,17.279h62.205c9.545,0,17.281-7.736,17.281-17.279V56.317C111.85,31.546,91.695,11.39,66.922,11.39z "/> </g><g> <path style="fill:#00AAFF;" d="M66.922,23.593H60.01c-24.771,0-44.926,20.156-44.926,44.928v39.635 c0,9.543,7.734,17.279,17.279,17.279h62.205c9.545,0,17.281-7.736,17.281-17.279V68.52C111.85,43.749,91.695,23.593,66.922,23.593 z"/> </g><g> <path style="fill:#FF1A1A;" d="M95.631,96.541c0,8.091-6.559,14.652-14.65,14.652H45.954c-8.09,0-14.65-6.562-14.65-14.652V85.552 c0-8.09,6.561-14.648,14.65-14.648h35.027c8.092,0,14.65,6.559,14.65,14.648V96.541z"/> </g><g> <path style="fill:#FF7676;" d="M45.954,70.903c-5.369,0-10.051,2.896-12.603,7.205c2.552,4.31,7.233,7.209,12.603,7.209h35.027 c5.369,0,10.051-2.899,12.601-7.209c-2.551-4.309-7.232-7.205-12.601-7.205H45.954z"/> </g><g> <path style="fill:#33363A;" d="M95.571,58.81c-0.828,0-1.5-0.671-1.5-1.5c0-15.61-12.7-28.31-28.312-28.31h-4.585 c-15.61,0-28.311,12.7-28.311,28.31c0,0.829-0.672,1.5-1.5,1.5s-1.5-0.671-1.5-1.5C29.864,40.045,43.91,26,61.174,26h4.585 c17.266,0,31.312,14.045,31.312,31.31C97.071,58.138,96.399,58.81,95.571,58.81z"/> </g><g> <path style="fill:#33363A;" d="M95.85,68.479c-1.287,0-2.334-1.048-2.334-2.336v-2.633c0-1.287,1.047-2.334,2.334-2.334 s2.334,1.047,2.334,2.334v2.633C98.184,67.432,97.137,68.479,95.85,68.479z"/> </g><path style="fill:#33363A;" d="M78.495,11.35C76.623,4.808,70.602,0,63.467,0C56.333,0,50.311,4.807,48.44,11.35 C28.42,16.504,13.584,34.71,13.584,56.317v51.838c0,10.355,8.425,18.779,18.779,18.779h62.205c10.356,0,18.781-8.424,18.781-18.779 V56.317C113.35,34.711,98.515,16.505,78.495,11.35z M63.467,3c5.185,0,9.647,3.141,11.594,7.619 c-2.645-0.47-5.361-0.729-8.139-0.729H60.01c-2.777,0-5.493,0.259-8.137,0.729C53.821,6.141,58.282,3,63.467,3z M110.35,108.155 c0,8.701-7.079,15.779-15.781,15.779H32.364c-8.701,0-15.779-7.079-15.779-15.779V56.317c0-19.735,13.236-36.426,31.294-41.69 c-0.022,0.337-0.051,0.672-0.051,1.015c0,0.829,0.672,1.5,1.5,1.5s1.5-0.671,1.5-1.5c0-0.612,0.059-1.21,0.143-1.799 c2.918-0.62,5.941-0.953,9.041-0.953h6.912c3.101,0,6.124,0.333,9.042,0.954c0.084,0.589,0.143,1.186,0.143,1.798 c0,0.829,0.672,1.5,1.5,1.5s1.5-0.671,1.5-1.5c0-0.342-0.03-0.677-0.051-1.014c18.057,5.265,31.294,21.955,31.294,41.69V108.155z"/><g> <path style="fill:#33363A;" d="M80.981,69.403H45.954c-8.905,0-16.15,7.244-16.15,16.148v10.989 c0,8.906,7.245,16.152,16.15,16.152h35.027c8.905,0,16.15-7.246,16.15-16.152V85.552C97.131,76.647,89.886,69.403,80.981,69.403z M80.981,109.693H45.954c-4.805,0-9.004-2.599-11.299-6.457h1.98c0.828,0,1.5-0.671,1.5-1.5s-0.672-1.5-1.5-1.5h-3.294 c-0.344-1.174-0.538-2.412-0.538-3.695V85.552c0-7.25,5.899-13.148,13.15-13.148h35.027c7.251,0,13.15,5.898,13.15,13.148v10.989 c0,1.284-0.193,2.522-0.538,3.695h-3.294c-0.828,0-1.5,0.671-1.5,1.5s0.672,1.5,1.5,1.5h1.98 C89.985,107.095,85.786,109.693,80.981,109.693z"/> <path style="fill:#33363A;" d="M51.967,100.236h-7.666c-0.828,0-1.5,0.671-1.5,1.5s0.672,1.5,1.5,1.5h7.666 c0.828,0,1.5-0.671,1.5-1.5S52.795,100.236,51.967,100.236z"/> <path style="fill:#33363A;" d="M67.3,100.236h-7.666c-0.828,0-1.5,0.671-1.5,1.5s0.672,1.5,1.5,1.5H67.3 c0.828,0,1.5-0.671,1.5-1.5S68.128,100.236,67.3,100.236z"/> <path style="fill:#33363A;" d="M82.632,100.236h-7.666c-0.828,0-1.5,0.671-1.5,1.5s0.672,1.5,1.5,1.5h7.666 c0.828,0,1.5-0.671,1.5-1.5S83.46,100.236,82.632,100.236z"/> </g></symbol><symbol id="pokeball" viewBox="0 0 126.334 126.334"><title>pokeball</title><g> <circle style="fill:#FF1A1A;" cx="63.167" cy="63.166" r="61.667"/> </g><g> <ellipse style="fill:#D60909;" cx="63.167" cy="63.166" rx="61.667" ry="47.232"/> </g><g> <path style="fill:#FFFFFF;" d="M1.5,63.166c0,34.061,27.609,61.668,61.667,61.668s61.667-27.607,61.667-61.668H1.5z"/> </g><g> <path style="fill:#D8E5EA;" d="M63.167,110.398c34.058,0,61.667-21.148,61.667-47.232H1.5 C1.5,89.25,29.109,110.398,63.167,110.398z"/> </g><path style="fill:#33363A;" d="M63.167,0C28.336,0,0,28.336,0,63.166c0,34.831,28.336,63.168,63.167,63.168 s63.167-28.337,63.167-63.168C126.334,28.336,97.998,0,63.167,0z M63.167,3c32.673,0,59.328,26.183,60.129,58.666H3.038 C3.839,29.183,30.494,3,63.167,3z M63.167,123.334c-32.673,0-59.328-26.184-60.129-58.668h120.258 C122.495,97.15,95.84,123.334,63.167,123.334z"/><g> <circle style="fill:#A7BBC1;" cx="63.167" cy="68.868" r="16.764"/> </g><g> <circle style="fill:#FFFFFF;" cx="63.167" cy="63.167" r="16.764"/> </g><g> <path style="fill:#D8E5EA;" d="M51.313,75.021c-6.547-6.547-6.546-17.16,0-23.709c6.547-6.546,17.161-6.546,23.707,0"/> </g><g> <path style="fill:#33363A;" d="M63.167,81.432c-4.878,0-9.465-1.9-12.915-5.35c-7.12-7.12-7.12-18.707,0-25.83 c7.122-7.12,18.708-7.12,25.829,0l0,0c3.45,3.451,5.351,8.038,5.351,12.916c0,4.878-1.9,9.465-5.351,12.915 C72.632,79.532,68.046,81.432,63.167,81.432z M63.167,47.91c-3.909,0-7.817,1.487-10.793,4.463c-5.95,5.953-5.95,15.637,0,21.588 c2.883,2.883,6.716,4.471,10.793,4.471c4.077,0,7.91-1.588,10.792-4.471c2.883-2.883,4.472-6.716,4.472-10.793 c0-4.077-1.588-7.91-4.472-10.794C70.985,49.398,67.076,47.91,63.167,47.91z"/> </g><g> <path style="fill:#FFFFFF;" d="M68.871,68.87c-3.149,3.146-8.257,3.146-11.404,0c-3.149-3.15-3.148-8.255,0-11.403 c3.148-3.15,8.255-3.148,11.403,0C72.019,60.615,72.019,65.72,68.871,68.87z"/> </g><g> <path style="fill:#D8E5EA;" d="M57.467,57.467c3.148-3.15,8.255-3.148,11.403,0c3.148,3.148,3.148,8.253,0.001,11.403"/> </g><g> <path style="fill:#33363A;" d="M63.168,72.725c-2.45,0-4.898-0.931-6.762-2.794c-3.729-3.73-3.729-9.797,0-13.525 c1.805-1.807,4.207-2.802,6.761-2.802c0,0,0,0,0,0c2.555,0,4.957,0.996,6.763,2.802c3.728,3.727,3.728,9.794,0.001,13.524 c0,0,0,0.001-0.001,0.001C68.066,71.794,65.617,72.725,63.168,72.725z M63.167,56.604c-1.753,0-3.401,0.683-4.64,1.923 c-2.559,2.559-2.559,6.723,0,9.282c2.558,2.557,6.723,2.557,9.283,0c2.558-2.56,2.557-6.724-0.001-9.282 C66.57,57.288,64.921,56.605,63.167,56.604L63.167,56.604z"/> </g></symbol><symbol id="egg" viewBox="0 0 126.666 126.666"><title>egg</title><g> <path style="fill:#FFFFFA;" d="M111.5,77c0,26.601-21.564,48.166-48.166,48.166c-26.604,0-48.168-21.565-48.168-48.166 c0-26.603,21.564-75.5,48.168-75.5C89.936,1.5,111.5,50.397,111.5,77z"/> </g><g> <path style="fill:#F9F9E4;" d="M63.334,1.5v123.666c26.602,0,48.166-21.565,48.166-48.166C111.5,50.397,89.936,1.5,63.334,1.5z"/> </g><g> <g> <path style="fill:#7BC67B;" d="M33.486,104.326c4.445,4.857,9.34,7.236,6.738,9.617c-2.604,2.381-8.316,0.371-12.762-4.486 c-4.443-4.858-5.936-10.727-3.332-13.109C26.732,93.969,29.043,99.465,33.486,104.326z"/> </g> <g> <path style="fill:#54AF79;" d="M93.18,104.326c-4.445,4.857-9.34,7.236-6.738,9.617c2.604,2.381,8.316,0.371,12.762-4.486 c4.443-4.858,5.936-10.727,3.332-13.109C99.934,93.969,97.623,99.465,93.18,104.326z"/> </g> </g><g> <path style="fill:#33363A;" d="M63.334,126.666c-27.387,0-49.668-22.28-49.668-49.666c0-13.942,5.612-32.964,14.299-48.46 C38.282,10.136,50.843,0,63.334,0c12.49,0,25.051,10.136,35.367,28.54C107.388,44.036,113,63.058,113,77 C113,104.386,90.72,126.666,63.334,126.666z M63.334,3C48.01,3,36.236,19.921,30.582,30.007 C22.128,45.088,16.666,63.534,16.666,77c0,25.732,20.936,46.666,46.668,46.666C89.065,123.666,110,102.732,110,77 c0-13.466-5.462-31.912-13.916-46.993C90.431,19.921,78.657,3,63.334,3z"/> </g><g> <path style="fill:#7BC67B;" d="M91.623,89.47c-6.268,13.575-19.066,21.016-28.588,16.62c-9.521-4.396-5.098-12.389,1.17-25.965 c6.266-13.573,12.002-27.589,21.523-23.191C95.25,61.328,97.889,75.897,91.623,89.47z"/> </g><g> <path style="fill:#54AF79;" d="M85.729,56.934c-9.521-4.397-15.258,9.618-21.523,23.191c-0.297,0.641-0.586,1.265-0.871,1.88 v24.209c9.488,4.109,22.088-3.309,28.289-16.744C97.889,75.897,95.25,61.328,85.729,56.934z"/> </g><g> <circle style="fill:#7BC67B;" cx="35.636" cy="38.547" r="3.06"/> </g><g> <circle style="fill:#7BC67B;" cx="46.678" cy="23.91" r="1.197"/> </g><g> <circle style="fill:#7BC67B;" cx="40.426" cy="56.11" r="1.73"/> </g><g> <circle style="fill:#54AF79;" cx="67.392" cy="113.216" r="1.73"/> </g><g> <circle style="fill:#7BC67B;" cx="59.251" cy="111.486" r="1.73"/> </g><g> <circle style="fill:#54AF79;" cx="83.879" cy="29.977" r="3.537"/> </g><g> <circle style="fill:#54AF79;" cx="93.913" cy="45.066" r="3.46"/> </g><g> <circle style="fill:#7BC67B;" cx="44.668" cy="91.447" r="3.459"/> </g><g> <path style="fill:#7BC67B;" d="M67.059,40.692c0,8.108,3.498,14.682-4.611,14.682c-8.109,0-14.682-6.573-14.682-14.682 s6.572-14.685,14.682-14.685C70.557,26.008,67.059,32.584,67.059,40.692z"/> </g><g> <path style="fill:#54AF79;" d="M63.334,55.341c6.951-0.482,3.725-6.854,3.725-14.648c0-7.794,3.227-14.169-3.725-14.651V55.341z"/> </g></symbol></svg>